# xmcd
#
# Track frame offsets: 
#        150
#        11486
#        22699
#        34848
#        46038
#        55882
#        66569
#        78610
#        87365
#        98242
#        110325
#        122264
#        134380
#        146919
#        156207
#        168968
#        181947
#        194642
#        204890
#        218449
#
# Disc length: 3072 seconds
#
# Revision: 0
# Processed by: cddbd v1.5.2PL0 Copyright (c) Steve Scherf et al.
# Submitted via: ExactAudioCopyFreeDBPlugin 1.0
#
DISCID=0a0bfe14
DTITLE=Stonewall Jackson - Life Of A Poor Boy: RCA Country Hits 1958-1
DTITLE=972 [CD1]
DYEAR=2011
DGENRE=Country
TTITLE0=Life To Go
TTITLE1=Waterloo
TTITLE2=Smoke Along The Track
TTITLE3=Mary Don't You Weep
TTITLE4=Why I'm Walkin'
TTITLE5=Life Of A Poor Boy
TTITLE6=A Little Guy Called Joe
TTITLE7=Greener Pastures
TTITLE8=Hungry For Love
TTITLE9=A Wound Time Can't Erase
TTITLE10=Second Choice
TTITLE11=One Look At Heaven
TTITLE12=Leona
TTITLE13=Can't Hang Up The Phone
TTITLE14=Old Showboat
TTITLE15=Wild Wild Wind
TTITLE16=B.J. The D.J.
TTITLE17=Not My Kind Of People
TTITLE18=Don't Be Angry
TTITLE19=I Washed My Hands In Muddy Water
EXTD=
EXTT0=
EXTT1=
EXTT2=
EXTT3=
EXTT4=
EXTT5=
EXTT6=
EXTT7=
EXTT8=
EXTT9=
EXTT10=
EXTT11=
EXTT12=
EXTT13=
EXTT14=
EXTT15=
EXTT16=
EXTT17=
EXTT18=
EXTT19=
PLAYORDER=
